<?xml version="1.0" encoding="UTF-8"?>
<svg xmlns="http://www.w3.org/2000/svg" viewBox="0 0 500 500">
  <defs>
    <style>
      .cls-1 {
        fill: #52719d;
      }

      .cls-2, .cls-3 {
        fill: #fff;
      }

      .cls-4 {
        font-family: Montserrat-ExtraBold, 'Montserrat ExtraBold';
        font-size: 11.61px;
        font-weight: 700;
      }

      .cls-4, .cls-5 {
        fill: #5a81ae;
      }

      .cls-6 {
        fill: #fafafa;
      }

      .cls-7 {
        fill: #72afe0;
      }

      .cls-8 {
        fill: #37474f;
      }

      .cls-3 {
        opacity: .4;
      }

      .cls-9 {
        fill: #f5f5f5;
      }

      .cls-10 {
        fill: #4a628d;
      }

      .cls-11 {
        fill: #455a64;
      }

      .cls-12 {
        fill: #f28f8f;
      }

      .cls-13 {
        opacity: .05;
      }

      .cls-14 {
        fill: #e0e0e0;
      }

      .cls-15 {
        fill: #e6e6e6;
      }

      .cls-16 {
        fill: #6a9fcf;
      }

      .cls-17 {
        fill: #ebebeb;
      }

      .cls-18 {
        letter-spacing: .2em;
      }

      .cls-19 {
        letter-spacing: .19em;
      }

      .cls-20 {
        letter-spacing: .2em;
      }

      .cls-21 {
        fill: #ba68c8;
      }

      .cls-22 {
        fill: #6290bf;
      }

      .cls-23 {
        fill: #263238;
      }

      .cls-24 {
        fill: #ffa8a7;
      }

      .cls-25 {
        fill: #42527c;
      }
    </style>
  </defs>
  <g id="Floor">
    <ellipse class="cls-9" cx="250" cy="356.97" rx="208.82" ry="120.56"/>
  </g>
  <g id="Shadows">
    <ellipse class="cls-14" cx="282.77" cy="415.33" rx="45.16" ry="26.07"/>
    <path class="cls-14" d="m259.3,327.05l-120.79,69.75c-3.4,1.96-9.33,1.72-13.26-.55l-42.88-24.76c-3.92-2.27-4.35-5.69-.95-7.65l120.79-69.75c3.4-1.96,9.33-1.72,13.26.55l42.88,24.76c3.92,2.27,4.35,5.69.95,7.65Z"/>
  </g>
  <g id="Plants">
    <g>
      <g>
        <path class="cls-21" d="m401.66,389.13l9.51,5.53s-4.8-15.33-2.14-30.74c1.01-5.82,3.12-8.71,3.87-10.26.75-1.55,6.48-11.17,1.43-15.6-5.05-4.43-16.9,4.38-16.37,28.13.27,12.19,3.69,22.95,3.69,22.95Z"/>
        <path class="cls-25" d="m401.66,389.13l9.51,5.53s-4.8-15.33-2.14-30.74c1.01-5.82,3.12-8.71,3.87-10.26.75-1.55,6.48-11.17,1.43-15.6-5.05-4.43-16.9,4.38-16.37,28.13.27,12.19,3.69,22.95,3.69,22.95Z"/>
        <path class="cls-2" d="m406.08,392.13c-.18,0-.34-.11-.41-.28-.04-.1-3.63-10.09-3.44-26.11.19-16.12,8.66-24.72,8.75-24.8.17-.17.44-.17.61,0,.17.17.17.44,0,.61-.08.08-8.31,8.45-8.49,24.2-.19,15.85,3.36,25.71,3.39,25.81.08.22-.03.47-.26.55-.05.02-.1.03-.15.03Z"/>
      </g>
      <g>
        <path class="cls-21" d="m409.04,393.45l15.72,9.24s7.2-1.06,6.65-7.84c-.54-6.77-3.47-8.37.17-11.35,3.64-2.98,4.58-3.17,4.41-6.09-.17-2.92-2.14-4.19-3.06-5.35-.92-1.16-3.5-3.58-1.69-7.1,1.81-3.52,4.27-6.92.62-8.53-2.18-.96-5.83.24-8.26,2.82-2.43,2.57-4.43,4.43-6.72,5.02-2.3.6-7.09.65-6.93,4.6s1.19,5.33.23,7.08c-1.81,3.31-9.54,5.09-1.14,17.48Z"/>
        <path class="cls-5" d="m409.04,393.45l15.72,9.24s7.2-1.06,6.65-7.84c-.54-6.77-3.47-8.37.17-11.35,3.64-2.98,4.58-3.17,4.41-6.09-.17-2.92-2.14-4.19-3.06-5.35-.92-1.16-3.5-3.58-1.69-7.1,1.81-3.52,4.27-6.92.62-8.53-2.18-.96-5.83.24-8.26,2.82-2.43,2.57-4.43,4.43-6.72,5.02-2.3.6-7.09.65-6.93,4.6s1.19,5.33.23,7.08c-1.81,3.31-9.54,5.09-1.14,17.48Z"/>
        <path class="cls-2" d="m415.44,397.64c-.22,0-.41-.17-.43-.4-.02-.23-1.73-23.67,14.55-39.06.17-.16.45-.16.61.02.16.17.16.45-.02.61-15.98,15.1-14.31,38.13-14.29,38.37.02.24-.16.45-.4.47-.01,0-.02,0-.04,0Z"/>
        <path class="cls-2" d="m418.26,377.56c-.22,0-.41-.17-.43-.4-.46-6.15-4.73-9.31-4.78-9.34-.19-.14-.24-.41-.1-.6.14-.19.41-.24.6-.1.19.14,4.65,3.42,5.13,9.98.02.24-.16.44-.4.46-.01,0-.02,0-.03,0Z"/>
        <path class="cls-2" d="m417.1,381.56c-.1,0-.21-.04-.29-.11-.18-.16-.19-.43-.03-.61.17-.19,4.27-4.62,13.75-3.32.24.03.4.25.37.49-.03.24-.25.4-.49.37-8.99-1.23-12.95,3-12.99,3.04-.08.09-.2.14-.32.14Z"/>
      </g>
    </g>
    <g>
      <g>
        <path class="cls-21" d="m101.12,337.94l-4.7,9.95s-4.74-15.34-15.68-26.53c-4.13-4.22-7.51-5.4-9.01-6.26s-11.68-5.52-10.03-12.03c1.64-6.52,16.4-5.98,29.44,13.88,6.69,10.19,9.99,20.99,9.99,20.99Z"/>
        <path class="cls-25" d="m101.12,337.94l-4.7,9.95s-4.74-15.34-15.68-26.53c-4.13-4.22-7.51-5.4-9.01-6.26s-11.68-5.52-10.03-12.03c1.64-6.52,16.4-5.98,29.44,13.88,6.69,10.19,9.99,20.99,9.99,20.99Z"/>
        <path class="cls-2" d="m98.94,343c-.19,0-.37-.13-.42-.32-.03-.1-2.7-10.23-11.85-23.17-9.09-12.86-20.61-15.09-20.72-15.11-.23-.04-.39-.27-.35-.5.04-.23.26-.39.5-.35.12.02,11.97,2.29,21.27,15.46,9.25,13.09,11.95,23.36,11.98,23.46.06.23-.08.47-.31.53-.04,0-.07.01-.11.01Z"/>
      </g>
      <g>
        <path class="cls-21" d="m97.5,345.69l-7.7,16.53s-6.53,3.21-9.92-2.68c-3.4-5.89-1.89-8.86-6.58-9.25-4.69-.39-5.57-.01-7.08-2.52-1.51-2.5-.62-4.66-.51-6.14.1-1.48.85-4.93-2.64-6.8-3.49-1.87-7.44-3.28-5.35-6.67,1.24-2.03,4.94-3.11,8.4-2.37,3.46.74,6.16,1.13,8.39.32,2.23-.81,6.2-3.49,8.32-.14,2.11,3.35,2.04,5.06,3.83,5.96,3.37,1.7,10.74-1.22,10.86,13.75Z"/>
        <path class="cls-5" d="m97.5,345.69l-7.7,16.53s-6.53,3.21-9.92-2.68c-3.4-5.89-1.89-8.86-6.58-9.25-4.69-.39-5.57-.01-7.08-2.52-1.51-2.5-.62-4.66-.51-6.14.1-1.48.85-4.93-2.64-6.8-3.49-1.87-7.44-3.28-5.35-6.67,1.24-2.03,4.94-3.11,8.4-2.37,3.46.74,6.16,1.13,8.39.32,2.23-.81,6.2-3.49,8.32-.14,2.11,3.35,2.04,5.06,3.83,5.96,3.37,1.7,10.74-1.22,10.86,13.75Z"/>
        <path class="cls-2" d="m94.36,352.85c-.15,0-.29-.08-.37-.22-.12-.2-11.81-20.12-33.53-23.49-.24-.04-.4-.26-.36-.49.04-.24.26-.4.49-.36,22.14,3.43,34.03,23.7,34.15,23.91.12.21.05.47-.16.59-.07.04-.14.06-.21.06Z"/>
        <path class="cls-2" d="m80.65,337.91c-.15,0-.29-.08-.37-.21-3.32-5.68-1.51-10.91-1.44-11.13.08-.22.32-.34.55-.26.22.08.34.33.26.55-.02.05-1.75,5.08,1.37,10.4.12.21.05.47-.15.59-.07.04-.14.06-.22.06Z"/>
        <path class="cls-2" d="m71.06,345.51c-.12,0-.23-.05-.32-.14-.16-.18-.15-.45.03-.61,7.06-6.45,12.96-5.12,13.2-5.07.23.06.37.29.32.52-.05.23-.28.38-.52.32-.06-.01-5.72-1.25-12.42,4.86-.08.08-.19.11-.29.11Z"/>
      </g>
    </g>
    <g id="Picture">
      <g id="Frame">
        <polygon class="cls-1" points="431.43 142.47 430 143.32 400.74 126.43 402.16 125.58 431.43 142.47"/>
        <polygon class="cls-2" points="402.16 125.58 430 141.65 430 112.5 402.16 96.44 402.16 125.58"/>
        <path class="cls-22" d="m398.05,127.98l34.64,20v-37.04s-34.64-20-34.64-20v37.04Zm2.69-32.38l29.26,16.89v30.83s-29.26-16.89-29.26-16.89v-30.83Z"/>
        <polygon class="cls-1" points="400.74 126.43 402.16 125.58 402.16 96.44 400.74 95.6 400.74 126.43"/>
        <polygon class="cls-1" points="398.05 90.94 399.49 90.11 434.14 110.11 432.69 110.94 398.05 90.94"/>
        <polygon class="cls-1" points="434.14 110.11 432.69 110.94 432.69 147.98 434.14 147.15 434.14 110.11"/>
      </g>
      <g id="Land">
        <polygon class="cls-7" points="403.25 124.71 428.91 139.52 428.91 132.12 422.5 117.3 418.5 121 419.94 127.21 411.08 108.26 403.25 117.3 403.25 124.71"/>
        <path class="cls-7" d="m418.74,110.14c1.05.61,1.9,2.08,1.9,3.29s-.85,1.7-1.9,1.1c-1.05-.61-1.9-2.08-1.9-3.29s.85-1.7,1.9-1.1Z"/>
      </g>
    </g>
    <g id="Picture-2" data-name="Picture">
      <g id="Frame-2" data-name="Frame">
        <polygon class="cls-1" points="432.04 190.53 430.62 191.38 401.35 174.49 402.78 173.63 432.04 190.53"/>
        <polygon class="cls-2" points="402.78 173.63 430.62 189.7 430.62 160.55 402.78 144.49 402.78 173.63"/>
        <path class="cls-22" d="m398.66,176.04l34.64,20v-37.04s-34.64-20-34.64-20v37.04Zm2.69-32.38l29.26,16.89v30.83s-29.26-16.89-29.26-16.89v-30.83Z"/>
        <polygon class="cls-1" points="401.35 174.49 402.78 173.63 402.78 144.49 401.35 143.66 401.35 174.49"/>
        <polygon class="cls-1" points="398.66 139 400.11 138.17 434.76 158.17 433.31 159 398.66 139"/>
        <polygon class="cls-1" points="434.76 158.17 433.31 159 433.31 196.04 434.76 195.21 434.76 158.17"/>
      </g>
      <g id="Land-2" data-name="Land">
        <polygon class="cls-7" points="403.87 172.76 429.53 187.58 429.53 180.17 423.11 165.36 419.12 169.06 420.55 175.27 411.69 156.32 403.87 165.36 403.87 172.76"/>
        <path class="cls-7" d="m419.36,158.2c1.05.61,1.9,2.08,1.9,3.29s-.85,1.7-1.9,1.1c-1.05-.61-1.9-2.08-1.9-3.29s.85-1.7,1.9-1.1Z"/>
      </g>
    </g>
  </g>
  <g id="Device">
    <g>
      <path class="cls-8" d="m97.61,136.5c0-5.93,3.16-11.41,8.3-14.37l105.52-60.92c3.12-1.8,6.9-.11,7.89,3.06-.57-2.47-2.11-4.64-4.34-5.97l-.38-.22c-2.63-1.56-5.63-2.39-8.68-2.39h0c-.93-.01-1.88.22-2.78.74l-105.52,60.92c-5.13,2.96-8.3,8.44-8.3,14.37v228.19c0,4.18,4.53,6.8,8.15,4.71l.14-.08v-228.03Z"/>
      <path class="cls-11" d="m211.28,308.48l-105.52,60.92c-3.62,2.09-8.15-.52-8.15-4.71v-228.19c0-5.93,3.16-11.41,8.3-14.37l105.52-60.92c3.62-2.09,8.15.52,8.15,4.71v228.19c0,5.93-3.16,11.41-8.3,14.37Z"/>
      <path class="cls-23" d="m97.61,364.7v-228.19c0-2.53.58-4.98,1.64-7.18l-8.16-5.05c-1.14,2.27-1.77,4.82-1.77,7.45v230.1c0,1.84.97,3.55,2.55,4.49l4.21,2.51c1.46.87,3.12,1.33,4.82,1.33h2.08c-2.81-.04-5.37-2.3-5.37-5.44Z"/>
      <g>
        <path class="cls-8" d="m207.65,83.15v191.8c0,5.24-2.79,10.07-7.33,12.69l-93.18,53.8c-.75.43-1.54.63-2.31.64,1.08,2.5,4.21,3.75,6.81,2.24l93.18-53.8c4.53-2.62,7.33-7.46,7.33-12.69V87.93c0-2.69-2.11-4.63-4.5-4.79Z"/>
        <path class="cls-21" d="m104.83,342.07c.77-.01,1.56-.21,2.31-.64l93.18-53.8c4.53-2.62,7.33-7.46,7.33-12.69V83.15c.44.03-1.4-.12-2.7.63l-93.18,53.8c-4.53,2.62-7.33,7.46-7.33,12.69v189.9c0,.7.15,1.35.4,1.94,0,0,0-.02-.01-.03Z"/>
        <path class="cls-5" d="m104.83,342.07c.77-.01,1.56-.21,2.31-.64l93.18-53.8c4.53-2.62,7.33-7.46,7.33-12.69V83.15c.44.03-1.4-.12-2.7.63l-93.18,53.8c-4.53,2.62-7.33,7.46-7.33,12.69v189.9c0,.7.15,1.35.4,1.94,0,0,0-.02-.01-.03Z"/>
      </g>
      <g>
        <path class="cls-23" d="m143.82,109.46c0,1.07-.75,2.37-1.68,2.91-.93.53-1.68.1-1.68-.97s.75-2.37,1.68-2.91,1.68-.1,1.68.97Z"/>
        <path class="cls-23" d="m150.07,105.86c0,1.07-.75,2.37-1.68,2.91-.93.53-1.68.1-1.68-.97s.75-2.37,1.68-2.91c.93-.53,1.68-.1,1.68.97Z"/>
        <path class="cls-23" d="m175.26,93.25l-20.3,11.72c-.8.46-1.45-.03-1.45-1.1h0c0-1.07.65-2.31,1.45-2.78l20.3-11.72c.8-.46,1.45.03,1.45,1.1h0c0,1.07-.65,2.31-1.45,2.78Z"/>
      </g>
      <path class="cls-23" d="m171.83,315.68h0c1.21,0,2,1.29,2,3.28,0,3.13-1.96,6.9-4.27,8.23l-9.71,5.6c-.52.3-1,.45-1.45.45-1.21,0-2-1.29-2-3.28,0-3.13,1.96-6.9,4.27-8.23l9.71-5.6c.52-.3,1-.45,1.45-.45m0-.83c-.57,0-1.2.18-1.86.56l-9.71,5.6c-2.59,1.49-4.69,5.5-4.69,8.95,0,2.57,1.16,4.1,2.83,4.1.57,0,1.2-.18,1.86-.56l9.71-5.6c2.59-1.49,4.69-5.5,4.69-8.95,0-2.57-1.16-4.1-2.83-4.1h0Z"/>
    </g>
  </g>
  <g id="Screen">
    <g>
      <g>
        <g>
          <g>
            <path class="cls-15" d="m118.19,163.71v214.99c0,3.89,1.43,6.51,3.62,7.37l.06.02h.01s9.29,5.1,9.29,5.1l-.05-8.27-1.03-222.93-9.81-5.02c-1.3,2.78-2.09,5.87-2.09,8.74Z"/>
            <path class="cls-15" d="m131.67,392.03l-10.06-5.51c-2.49-1.03-3.93-3.94-3.93-7.83v-214.99c0-2.83.76-6.01,2.13-8.95l.22-.47,10.54,5.39v.3s1.03,222.93,1.03,222.93l.06,9.12Zm-9.55-6.38l8.55,4.68-.05-7.42-1.03-222.63-9.07-4.64c-1.18,2.68-1.82,5.52-1.82,8.05v214.99c0,3.51,1.23,6.09,3.3,6.9l.13.06h0Z"/>
          </g>
          <g>
            <path class="cls-14" d="m120.27,154.97l9.81,5.02,105.01-61.09,7.01-4.08-9.69-5.46-.28-.16h0c-1.54-.94-3.57-.88-5.8.41l-99.4,57.39c-2.68,1.54-5.07,4.52-6.67,7.97Z"/>
            <path class="cls-14" d="m130.08,160.49c-.08,0-.16-.02-.23-.05l-9.81-5.02c-.24-.12-.34-.41-.23-.66,1.71-3.67,4.21-6.66,6.88-8.19l99.4-57.39c2.3-1.33,4.54-1.48,6.3-.41.03.02.05.03.07.05l.2.12,9.68,5.45c.16.09.25.25.25.43s-.09.35-.25.44l-112.02,65.17c-.08.05-.16.07-.25.07Zm-9.15-5.74l9.13,4.67,111.03-64.59-9.21-5.2s-.05-.03-.08-.05c-1.43-.82-3.28-.65-5.21.47l-99.4,57.39c-2.39,1.38-4.65,4.03-6.26,7.32Z"/>
          </g>
          <path class="cls-6" d="m127.81,169.11v214.02c0,3.37,1.07,5.8,2.79,6.93l.56.31c1.49.71,3.36.55,5.4-.62l48.05-27.74,51.35-30.91c4.83-2.79,8.76-9.03,8.76-15.46V101.63c0-3.26-1-5.62-2.62-6.81-.28-.2-.57-.38-.89-.5-1.46-.62-3.28-.44-5.25.69l-99.4,58.36c-2.58,1.48-4.89,3.34-6.48,6.62-1.41,2.87-2.27,6.11-2.27,9.13Z"/>
        </g>
        <g>
          <path class="cls-6" d="m235.96,331.1c-20.45,12.2-73.66,43.96-100,59.82-3.45,2.08-7.84-.41-7.84-4.44v-220.07c0-5.09,2.7-9.81,7.1-12.38l101.22-59.32c3.45-2.02,7.79.47,7.79,4.46v217.36c0,5.97-3.14,11.5-8.27,14.56Z"/>
          <path class="cls-17" d="m235.71,330.66c-16.06,9.58-32.11,19.16-48.16,28.76-9.5,5.68-19,11.36-28.5,17.05-4.34,2.6-8.68,5.2-13.01,7.8-1.9,1.14-3.79,2.28-5.69,3.42-1.75,1.05-3.61,2.55-5.55,3.22-3.21,1.11-6.1-1.45-6.18-4.62-.01-.51,0-1.02,0-1.54v-201.77c0-5.37-.01-10.75,0-16.12.01-5.29,2.57-9.87,7.14-12.58,2.32-1.37,4.65-2.73,6.98-4.09,10.9-6.39,21.8-12.78,32.7-19.16,12.92-7.57,25.83-15.14,38.75-22.71,7.35-4.31,14.68-8.65,22.05-12.92,2.28-1.32,5.15-1.19,6.74,1.19.64.97.76,2.05.76,3.16,0,1.92,0,3.84,0,5.75v210.17c0,6.15-2.69,11.69-8.02,14.97-.55.34-.05,1.2.5.86,5.56-3.42,8.52-9.25,8.52-15.7V115.11c0-5.23.06-10.45,0-15.68-.05-4.75-4.84-7.28-8.88-4.96-2.44,1.41-4.85,2.84-7.28,4.27-11.2,6.56-22.4,13.13-33.6,19.69-13.03,7.64-26.06,15.28-39.1,22.91-6.91,4.05-13.85,8.07-20.74,12.16-4.79,2.84-7.49,7.77-7.51,13.31,0,1.8,0,3.6,0,5.4v213.23c0,.34-.01.69,0,1.03.12,3.77,3.74,6.65,7.45,5.41,1.89-.63,3.67-2.05,5.37-3.07,1.93-1.16,3.87-2.32,5.8-3.49,4.32-2.6,8.65-5.19,12.97-7.78,18.91-11.33,37.84-22.64,56.76-33.94,6.74-4.03,13.49-8.05,20.23-12.07.55-.33.05-1.19-.5-.86Z"/>
        </g>
        <path class="cls-17" d="m135.22,154.03l101.22-59.32c3.45-2.02,7.79.47,7.79,4.46v9.55h-.03s-116.08,67.02-116.08,67.02v-9.32c0-5.09,2.7-9.81,7.1-12.38Z"/>
      </g>
      <g>
        <ellipse class="cls-21" cx="186.17" cy="195.33" rx="37.17" ry="21.46" transform="translate(-76.07 258.89) rotate(-60)"/>
        <ellipse class="cls-7" cx="186.17" cy="195.33" rx="37.17" ry="21.46" transform="translate(-76.07 258.89) rotate(-60)"/>
        <g>
          <path class="cls-8" d="m181.46,195.44c-.65,0-1.18-.53-1.18-1.18v-7.77c0-3.43,2.33-7.47,5.3-9.19,1.64-.95,3.24-1.06,4.51-.33,1.27.73,1.97,2.18,1.97,4.07v7.77c0,.65-.53,1.18-1.18,1.18s-1.18-.53-1.18-1.18v-7.77c0-1-.29-1.74-.79-2.03-.5-.29-1.29-.17-2.15.33-2.24,1.29-4.13,4.56-4.13,7.15v7.77c0,.65-.53,1.18-1.18,1.18Z"/>
          <path class="cls-5" d="m195.7,183.81c-.46-.22-1.04-.18-1.67.19l-15.72,9.08c-.63.36-1.21.99-1.67,1.74-.62,1.01-1.02,2.25-1.02,3.39v13.61c0,.99.3,1.71.78,2.07.09.07.18.12.27.16h0c.45.2,1.01.15,1.63-.2l15.72-9.08c1.48-.86,2.68-3.15,2.68-5.13v-13.61c0-1.14-.4-1.92-1.02-2.21Z"/>
          <g>
            <path class="cls-11" d="m187.96,197.99l1.52,4.36-5.33,3.08,1.33-5.38.19-.76c-.9.03-1.52-.67-1.52-1.89,0-.47.09-.96.25-1.45.43-1.29,1.35-2.55,2.41-3.16,1.47-.85,2.66-.16,2.66,1.54,0,1.23-.63,2.64-1.52,3.66v.03Z"/>
            <path class="cls-8" d="m185.48,200.04l.19-.76c-.9.03-1.52-.67-1.52-1.89,0-.47.09-.96.25-1.45l3.56,2.06,1.52,4.36-3.99-2.31Z"/>
          </g>
        </g>
      </g>
      <g>
        <path class="cls-16" d="m224.95,245.66l-77.55,44.77c-3.21,1.85-5.81-.11-5.81-4.39v-11.75c0-4.28,2.6-9.25,5.81-11.1l77.55-44.77c3.21-1.85,5.81.11,5.81,4.39v11.75c0,4.28-2.6,9.25-5.81,11.1Z"/>
        <g>
          <g>
            <rect class="cls-6" x="159.85" y="262.13" width="1.5" height="12.43"/>
            <rect class="cls-6" x="154.39" y="267.6" width="12.43" height="1.5" transform="translate(-112.67 116.28) rotate(-30)"/>
            <rect class="cls-6" x="159.85" y="263.95" width="1.5" height="8.79" transform="translate(-152.1 273.27) rotate(-60)"/>
            <rect class="cls-6" x="152.99" y="267.6" width="15.23" height="1.5" transform="translate(-152.1 273.24) rotate(-60)"/>
          </g>
          <g>
            <rect class="cls-6" x="185.42" y="248.21" width="1.5" height="12.43"/>
            <rect class="cls-6" x="179.96" y="253.67" width="12.43" height="1.5" transform="translate(-102.28 127.2) rotate(-30)"/>
            <rect class="cls-6" x="185.42" y="250.03" width="1.5" height="8.79" transform="translate(-127.25 288.45) rotate(-60)"/>
            <rect class="cls-6" x="178.56" y="253.67" width="15.23" height="1.5" transform="translate(-127.25 288.42) rotate(-60)"/>
          </g>
          <g>
            <rect class="cls-6" x="210.99" y="234.28" width="1.5" height="12.43"/>
            <rect class="cls-6" x="205.53" y="239.75" width="12.43" height="1.5" transform="translate(-91.89 138.11) rotate(-30)"/>
            <rect class="cls-6" x="210.99" y="236.1" width="1.5" height="8.79" transform="translate(-102.4 303.63) rotate(-60)"/>
            <rect class="cls-6" x="204.13" y="239.75" width="15.23" height="1.5" transform="translate(-102.41 303.61) rotate(-60)"/>
          </g>
        </g>
      </g>
      <g>
        <path class="cls-22" d="m227.25,261.84c1.04,0,1.5,1.55,1.5,3.09v11.75c0,3.57-2.2,7.86-4.81,9.37l-77.55,44.77c-.49.28-.94.43-1.31.43-1.04,0-1.5-1.55-1.5-3.09v-11.75c0-3.57,2.2-7.86,4.81-9.37l77.55-44.77c.49-.28.94-.43,1.31-.43m0-2c-.71,0-1.49.22-2.31.7l-77.55,44.77c-3.21,1.85-5.81,6.82-5.81,11.1v11.75c0,3.19,1.44,5.09,3.5,5.09.71,0,1.49-.22,2.31-.7l77.55-44.77c3.21-1.85,5.81-6.82,5.81-11.1v-11.75c0-3.19-1.44-5.09-3.5-5.09h0Z"/>
        <text class="cls-4" transform="translate(175.65 306.09) rotate(-30) scale(1 .87) skewX(-26.56)"><tspan class="cls-20" x="0" y="0">e</tspan><tspan class="cls-18" x="8.14" y="0">n</tspan><tspan class="cls-19" x="16.86" y="0">t</tspan><tspan class="cls-20" x="22.95" y="0">er</tspan></text>
      </g>
    </g>
  </g>
  <g id="Icons">
    <g id="Table">
      <g id="Table-2" data-name="Table">
        <g>
          <path class="cls-25" d="m350.61,274.74c0-.3.2-.6.59-.82.79-.45,2.06-.45,2.85,0,.39.23.59.52.59.82l-15.12,62.79h0c0,.21-.14.41-.41.57-.56.32-1.46.32-2.01,0-.27-.16-.41-.36-.41-.57h0l13.94-62.79Z"/>
          <path class="cls-25" d="m385.46,274.74c0-.3-.2-.6-.59-.82-.79-.45-2.06-.45-2.85,0-.39.23-.59.52-.59.82l15.12,62.79h0c0,.21.14.41.41.57.56.32,1.46.32,2.01,0,.27-.16.41-.36.41-.57h0l-13.94-62.79Z"/>
          <path class="cls-11" d="m370.29,276.81c0-.3-.2-.6-.59-.82-.79-.45-2.06-.45-2.85,0-.39.23-.59.52-.59.82l.59,70.81h0c0,.21.14.41.41.57.56.32,1.46.32,2.01,0,.27-.16.41-.36.41-.57h0l.59-70.81Z"/>
        </g>
        <g>
          <path class="cls-5" d="m404.35,259.66h-.03c0-5.33-3.49-10.66-10.53-14.73-14.09-8.13-36.93-8.13-51.02,0-7.05,4.07-10.54,9.4-10.53,14.73h-.03v2.86h0c.08,5.26,3.61,10.51,10.57,14.52,14.09,8.13,36.93,8.13,51.02,0,6.95-4.01,10.48-9.26,10.57-14.52h0v-2.86Z"/>
          <path class="cls-21" d="m342.77,244.94c-14.09,8.13-14.09,21.32,0,29.46,14.09,8.13,36.93,8.13,51.02,0,14.09-8.13,14.09-21.32,0-29.46-14.09-8.13-36.93-8.13-51.02,0Z"/>
          <path class="cls-7" d="m342.77,244.94c-14.09,8.13-14.09,21.32,0,29.46,14.09,8.13,36.93,8.13,51.02,0,14.09-8.13,14.09-21.32,0-29.46-14.09-8.13-36.93-8.13-51.02,0Z"/>
        </g>
      </g>
      <g id="Pot">
        <g class="cls-13">
          <path d="m376.18,252.78c4.49,2.59,4.49,6.8,0,9.4-4.49,2.59-11.78,2.59-16.27,0-4.49-2.59-4.49-6.8,0-9.4,4.49-2.59,11.78-2.59,16.27,0Z"/>
        </g>
        <g>
          <path class="cls-17" d="m360.88,258.06c-3.91-3.99-6.21-13.97-2.4-17.13h19.42c3.82,3.17,1.52,13.13-2.39,17.13-.03.04-.07.07-.11.11-.04.04-.09.09-.13.13-.11.11-.23.21-.35.31-.03.03-.06.05-.09.07-.1.08-.19.15-.3.22-.17.12-.34.23-.51.32-3.22,1.86-8.44,1.86-11.66,0h0c-.17-.1-.34-.21-.51-.33-.1-.07-.19-.14-.27-.21-.04-.03-.08-.06-.12-.09-.12-.1-.23-.2-.34-.3-.05-.05-.1-.1-.16-.15-.03-.03-.06-.06-.09-.09Z"/>
          <path class="cls-6" d="m376.23,239.65c4.43,2.56,4.43,6.71,0,9.27-4.43,2.56-11.62,2.56-16.05,0-4.43-2.56-4.43-6.71,0-9.27,4.43-2.56,11.62-2.56,16.05,0Z"/>
          <path class="cls-17" d="m373.08,241.47c2.7,1.56,2.7,4.08,0,5.64-2.7,1.56-7.07,1.56-9.76,0-2.7-1.56-2.7-4.08,0-5.64,2.7-1.56,7.07-1.56,9.76,0Z"/>
          <path class="cls-14" d="m363.32,244.14c2.7-1.56,7.07-1.56,9.76,0,.75.43,1.28.94,1.62,1.48-.33.54-.87,1.05-1.62,1.48-2.7,1.56-7.07,1.56-9.76,0-.75-.43-1.28-.94-1.62-1.48.33-.54.87-1.05,1.62-1.48Z"/>
        </g>
        <g>
          <path class="cls-21" d="m372.49,245.62s1.9-1.81,3.53-4.69c1.63-2.88,1.93-6.75,1.09-7.22-.84-.48-4.28,3.38-4.28,3.38,0,0,.51-2.35.36-4.92-.14-2.57-.77-4.9-1.51-5.37-.74-.47-2.38,2.77-3.09,5.12-.71,2.35-1.13,4.28-1.13,4.28,0,0-.48-3.17-1.27-5.4-.86-2.44-1.63-2.99-2.23-2.75-.6.24-1,1.38-1.18,4.63-.12,2.27.15,4.65.15,4.65,0,0-1.21-1.33-2.55-2.62-1.48-1.42-2.11-1.61-2.53-1.34-.42.27-.54,2.48,1.75,6.61,2.02,3.65,4.31,5.68,4.31,5.68,0,0,3.16,2.04,8.57,0Z"/>
          <path class="cls-10" d="m372.49,245.62s1.9-1.81,3.53-4.69c1.63-2.88,1.93-6.75,1.09-7.22-.84-.48-4.28,3.38-4.28,3.38,0,0,.51-2.35.36-4.92-.14-2.57-.77-4.9-1.51-5.37-.74-.47-2.38,2.77-3.09,5.12-.71,2.35-1.13,4.28-1.13,4.28,0,0-.48-3.17-1.27-5.4-.86-2.44-1.63-2.99-2.23-2.75-.6.24-1,1.38-1.18,4.63-.12,2.27.15,4.65.15,4.65,0,0-1.21-1.33-2.55-2.62-1.48-1.42-2.11-1.61-2.53-1.34-.42.27-.54,2.48,1.75,6.61,2.02,3.65,4.31,5.68,4.31,5.68,0,0,3.16,2.04,8.57,0Z"/>
        </g>
      </g>
    </g>
  </g>
  <g id="Character">
    <g>
      <path class="cls-24" d="m308.38,253.2s7.29-.49,11.42,9.64c2.57,6.3,5.7,16.03,7.7,22.49,1.24,4.02-.04,8.38-3.26,11.08l-12.71,10.66-4.55-8.27s4.9-6.54,8.68-9.92l-8.68-26.05,1.39-9.64Z"/>
      <path class="cls-21" d="m311.74,284.14s11.58,1.53,14.47-7.4c0,0-4.96-13.07-7.24-17.41-2.27-4.34-6.93-7.49-10.6-6.12-3.67,1.37,3.36,30.93,3.36,30.93Z"/>
      <path class="cls-16" d="m311.74,284.14s11.58,1.53,14.47-7.4c0,0-4.96-13.07-7.24-17.41-2.27-4.34-6.93-7.49-10.6-6.12-3.67,1.37,3.36,30.93,3.36,30.93Z"/>
      <path class="cls-8" d="m304.01,401.4s-5.5-4.71-7.64-4.93c-2.14-.22-5.84,3.44-2.71,9.8.87,1.77,4.41,3.68,6.62,7.07,2.21,3.39,4.2,5.93,7.59,5.47,3.39-.46,3.83-2.38,3.61-4.59-.22-2.21-1.22-6-1.22-6l-6.24-6.81Z"/>
      <path class="cls-23" d="m308.04,417.79c-3.49.48-5.54-2.15-7.82-5.64-2.28-3.49-5.92-5.47-6.82-7.29-.39-.8-.68-1.56-.88-2.28.13,1.1.47,2.32,1.14,3.68.87,1.77,4.41,3.68,6.62,7.07,2.21,3.39,4.2,5.93,7.59,5.47,2.6-.35,3.46-1.56,3.62-3.1-.45,1.04-1.43,1.81-3.44,2.09Z"/>
      <path class="cls-17" d="m301.08,407.46c-.08,0-.17-.02-.25-.06-.26-.14-.36-.46-.22-.72.07-.13,1.79-3.29,5.18-4.06.29-.07.57.12.64.4.07.29-.12.57-.4.64-2.9.66-4.45,3.49-4.47,3.52-.1.18-.28.28-.47.28Z"/>
      <path class="cls-17" d="m299.02,405.56c-.09,0-.17-.02-.25-.06-.26-.14-.36-.46-.22-.72.07-.13,1.79-3.29,5.18-4.06.29-.07.57.12.64.4s-.12.57-.4.64c-2.9.66-4.45,3.49-4.47,3.52-.1.18-.28.28-.47.28Z"/>
      <path class="cls-17" d="m296.67,403.67c-.08,0-.17-.02-.25-.06-.26-.14-.36-.46-.22-.72.07-.13,1.79-3.29,5.17-4.06.29-.07.57.12.64.4s-.12.57-.4.64c-2.9.66-4.45,3.49-4.47,3.52-.1.18-.28.28-.47.28Z"/>
      <path class="cls-8" d="m274.73,416.85s-7.37-2.39-9.57-1.73c-2.2.66-4.35,5.8,1.35,10.79,1.59,1.39,5.86,1.83,9.44,4.26,3.57,2.44,6.59,4.13,9.74,2.28,3.16-1.85,2.9-3.98,2.34-6.29-.72-2.94-1.29-5.08-1.29-5.08l-12-4.24Z"/>
      <path class="cls-23" d="m285.45,431.38c-3.25,1.91-6.36.16-10.04-2.36-3.68-2.51-8.09-2.96-9.73-4.39-.72-.63-1.31-1.26-1.8-1.89.58,1.03,1.42,2.1,2.63,3.16,1.59,1.39,5.86,1.83,9.44,4.26,3.57,2.44,6.59,4.13,9.74,2.28,2.42-1.42,2.77-2.96,2.3-4.55-.02,1.21-.67,2.38-2.54,3.48Z"/>
      <path class="cls-17" d="m272.97,423.66s-.04,0-.05,0c-.29-.03-.51-.29-.48-.58.02-.16.41-3.96,3.43-6.11.24-.17.57-.11.75.13.17.24.11.57-.13.75-2.61,1.85-2.98,5.3-2.98,5.34-.03.28-.26.48-.53.48Z"/>
      <path class="cls-17" d="m276.02,424.65s-.04,0-.05,0c-.29-.03-.51-.29-.48-.58.02-.16.41-3.96,3.43-6.11.24-.17.57-.12.75.13.17.24.11.57-.13.75-2.61,1.85-2.98,5.3-2.98,5.34-.03.28-.26.48-.53.48Z"/>
      <path class="cls-17" d="m270.16,422.63s-.04,0-.05,0c-.29-.03-.51-.29-.48-.58.02-.16.41-3.96,3.43-6.11.24-.17.57-.11.75.13.17.24.11.57-.13.75-2.61,1.85-2.98,5.3-2.98,5.34-.03.28-.26.48-.53.48Z"/>
      <g>
        <path class="cls-25" d="m310.6,402.8c.66-7.3,2.09-18.74,2.69-24.09,1.06-9.56.09-16.85-.58-20.31-.3-1.59-.39-3.19-.23-4.8,1.45-14.54,2.39-38.11,1.59-43.29l-20.41,4.32s2.5,33.07,3.59,44.06c1.1,11.07,5.21,44.2,5.21,44.2,1.71,1,4.81,2.1,8.14-.1Z"/>
        <path class="cls-24" d="m307.66,410.31c1.77-.28,2.6-2.1,2.6-2.1,0-1.15.13-3.07.34-5.41-3.33,2.2-6.43,1.1-8.14.1l.72,6.14c.83.94,2.71,1.55,4.47,1.27Z"/>
      </g>
      <path class="cls-25" d="m287.64,415.64c.83-11.05,2.44-32.47,2.66-35.83.22-3.39-.16-8.07-.7-11.11-.35-1.98-.32-4.01.03-5.99l8.97-49.77-24.67-.36-1.61,52.14c-.02.67,0,1.35.08,2.02l5.23,48.6h0s5.1,4.28,10.02.31Z"/>
      <path class="cls-24" d="m283.52,424.76c1.77-.17,3.37-1.66,3.62-2.54,0,0,.2-2.64.5-6.59-4.91,3.97-10.02-.31-10.02-.31h0s.78,7.29.78,7.29c0,0,1.16,2.52,5.12,2.15Z"/>
      <path class="cls-21" d="m285.32,256.52l-5.82,1.99-6.26,29.61.3,26.26s4.47,3.56,21.93,3.56c9.8,0,16.18-3.69,18.59-7.62l-1.57-15.86s1.57-15.63,1.57-23.36.34-14.06-5.69-17.89l-5.38.44-17.68,2.87Z"/>
      <path class="cls-5" d="m285.32,256.52l-5.82,1.99-6.26,29.61.3,26.26s4.47,3.56,21.93,3.56c9.8,0,16.18-3.69,18.59-7.62l-1.57-15.86s1.57-15.63,1.57-23.36.34-14.06-5.69-17.89l-5.38.44-17.68,2.87Z"/>
      <path class="cls-12" d="m279,231.07l-2.91,5.77c-.18.36,0,.79.38.92l3.46,1.15-.92-7.83Z"/>
      <path class="cls-24" d="m283.04,221.4s-4.42,2.38-4.42,16.04c0,7.51.52,12.3,4.42,12.01,3.9-.29,15.14-1.77,15.14-1.77v-26.28h-15.14Z"/>
      <path class="cls-12" d="m283.04,249.45c1.37-.1,3.65-.35,6.03-.63v-1.39c-2.19,1.12-6.09,1.91-6.68,2.02.21.02.42.02.65,0Z"/>
      <polygon class="cls-24" points="288.4 246.84 288.4 255.41 300.13 255.41 300.13 243.37 288.4 246.84"/>
      <path class="cls-21" d="m288.4,252.15s4.22,1.5,7.61.91,4.12-2.65,4.12-2.65c0,0,1.1-.08,2.87,3.24,0,0-2.07,4.14-6.85,4.42-6.26.37-10.83-1.55-10.83-1.55,0,0,1.63-4.8,3.08-4.37Z"/>
      <path class="cls-3" d="m288.4,252.15s4.22,1.5,7.61.91,4.12-2.65,4.12-2.65c0,0,1.1-.08,2.87,3.24,0,0-2.07,4.14-6.85,4.42-6.26.37-10.83-1.55-10.83-1.55,0,0,1.63-4.8,3.08-4.37Z"/>
      <path class="cls-24" d="m262.23,277.59l-3.15,4.85s-7.65-3.41-13.02-5.48-8.58-4.94-8.58-4.94c0,0,.41-4.1,1.03-6.2.62-2.09.83-3.85-1.03-2.92-1.86.93-3.1,4.55-3.2,4.96,0,0-10.75-10.8-12.09-10.57-1.34.23-1.03,1.86,1.86,5.19l2.89,3.33s-6.59,3.8-5.52,7.93,9.76,6,9.76,6c0,0,25.42,19.54,31.06,16.02,5.64-3.51,13.6-13.65,13.6-13.65l-13.6-4.54Z"/>
      <path class="cls-21" d="m281.81,257.75s4.69,3.86,1.63,11.84c-3.06,7.98-10.86,17.62-10.86,17.62,0,0-8.19-2.54-11.34-9.16l10.32-16.15c1.49-2.33,3.99-3.82,6.76-4,.97-.06,2.13-.12,3.5-.15Z"/>
      <path class="cls-16" d="m281.81,257.75s4.69,3.86,1.63,11.84c-3.06,7.98-10.86,17.62-10.86,17.62,0,0-8.19-2.54-11.34-9.16l10.32-16.15c1.49-2.33,3.99-3.82,6.76-4,.97-.06,2.13-.12,3.5-.15Z"/>
      <path class="cls-23" d="m281.35,213.36s-4.64-.62-5.82,2.58c-.74,1.99,1.62,3.54,1.62,3.54,0,0-2.99,2.81,1.47,3.68,0,0-.37,3.83,3.61,3.31,0,0-.52,3.04,3.39,4.1,0,0-1.97,5.26,1.74,5.33h3.48l-1.4,4.05s2.6,6.26,10.7,6.26c0,0,2.06-4.27,3.02-5.52.96-1.25,5.97-7.66,5.97-12.74s-1.96-8.09-4.66-8.76c0,0-1.16-2.8-3.88-4.64s-8.47-3.48-11.71-1.23c0,0-2.87-3.77-4.86-3.77s-2.65,2.05-2.65,3.82Z"/>
      <path class="cls-24" d="m287.36,235.89s-.34-5.33,4.15-5.33,3.43,9.38-2.08,9.38l-2.07-4.05Z"/>
    </g>
  </g>
</svg>