<?xml version="1.0" encoding="UTF-8"?>
<svg id="Layer_1" data-name="Layer 1" xmlns="http://www.w3.org/2000/svg" xmlns:xlink="http://www.w3.org/1999/xlink" viewBox="0 0 425.2 425.2">
  <defs>
    <style>
      .cls-1 {
        fill: #fff;
      }

      .cls-2 {
        fill: #7c989f;
      }

      .cls-3 {
        clip-path: url(#clippath-2);
      }

      .cls-4 {
        clip-path: url(#clippath-6);
      }

      .cls-5 {
        fill: #486577;
      }

      .cls-6 {
        clip-path: url(#clippath-1);
      }

      .cls-7 {
        clip-path: url(#clippath-4);
      }

      .cls-8 {
        fill: #283e5e;
      }

      .cls-9 {
        fill: #29507f;
      }

      .cls-10 {
        clip-path: url(#clippath);
      }

      .cls-11 {
        fill: #37517e;
      }

      .cls-12 {
        fill: none;
      }

      .cls-13 {
        fill: #627ba0;
      }

      .cls-14 {
        clip-path: url(#clippath-3);
      }

      .cls-15 {
        fill: #98c2d3;
      }

      .cls-16 {
        fill: #819bb5;
      }

      .cls-17 {
        clip-path: url(#clippath-5);
      }

      .cls-18 {
        fill: #8eb7c4;
      }
    </style>
    <clipPath id="clippath">
      <path class="cls-12" d="m309.71,209.07c-20.46,12.42-31.25,18.97-31.25,18.97-.46.25-1.01.63-1.54,1.18-1.41,1.47-1.72,3.22-1.8,3.96h0s-.79,1.8-.73,10.22c0,0,.27,76.91.27,76.92.19-1.09-.16,2.27-.69,3.24-.79,1.44-2.04,2.22-2.83,2.65-.82.44-22.86,12.32-23.23,14.21-.01.07-.08.56-.43.75-.23.13-.51.08-.74,0,0,0-1.9-2.28-1.9-2.28,0,0-.05-9.53-.03-19.45.01-7.28.05-7.95.06-15.35,0-6.06-.02-10.43-.02-12.19h0s0-65.96.61-76.31c0-.05.11-1.9.11-1.9.12-.08.23-.15.35-.23l.44-.34c.21-.18.42-.35.64-.53.03-.02,1.5-.83,1.53-.85,0,0,.28-.15.28-.15,3.9-2.17,13.1-6.72,31.04-17.74h0c2.49-1.41,35.97-20.28,35.97-20.28,0,0,5.69-2.8,9.66-4.76.04-.02.06-.03.06-.03,0,0,9.31-5.4,9.32-5.4,0,0,2.03.58,2.21,1.62.03.18,0,.32,0,.36-.39,1.98.13,35.71.13,35.72h0s-.73,81.92-.13,84.72c.03.12.08.79-.04,1.62-.07.52-.39.99-.82,1.3-6.6,4.83-13.56,9.05-20.85,12.73-1.4.71-3.05-.39-2.96-1.96.02-.38.06-1.39.06-1.39,0,.04-.01.07-.02.07-.2,0-.15-33.78-.08-85.77,0,0,.02.2,0,.2-.07,0-.04-3.06-1.32-3.64-.46-.21-.97-.05-1.32.1Z"/>
    </clipPath>
    <clipPath id="clippath-1">
      <path class="cls-12" d="m324.11,164.96c-4.26,7.44-12.94,20.3-28.44,30.96-12.23,8.41-23.98,12.21-31.68,14.04-8.76,1.8-17.52,3.6-26.28,5.4,28.8-16.8,57.6-33.6,86.4-50.4Z"/>
    </clipPath>
    <clipPath id="clippath-2">
      <path class="cls-12" d="m282.98,308.42h-46.98c.45-31.23.9-62.46,1.35-93.69,17.01-3.51,34.02-7.02,51.03-10.53-1.8,34.74-3.6,69.48-5.4,104.22Z"/>
    </clipPath>
    <clipPath id="clippath-3">
      <rect class="cls-12" x="292.25" y="205.19" width="44.79" height="98.82"/>
    </clipPath>
    <clipPath id="clippath-4">
      <rect class="cls-12" x="237.08" y="307.88" width="30.51" height="34.56"/>
    </clipPath>
    <clipPath id="clippath-5">
      <path class="cls-12" d="m244.64,311.17c-4.76-10.13.89-24.29,12.37-52.2,6.06-14.73,9.09-22.09,14.04-30.96,24.09-43.14,65.93-73.43,70.2-69.48,3.02,2.79-16.83,18.96-32.76,54.36-27.45,61.02-11.17,107.9-31.68,115.2-11.15,3.96-27.02-5.95-32.17-16.92Z"/>
    </clipPath>
    <clipPath id="clippath-6">
      <path class="cls-12" d="m354.67,235.52c-2.51,6.75-10.71,11.98-16.74,10.53-9.08-2.19-6.68-17.94-15.48-28.48-19.4-23.22-76.23-.71-76.97-3.57-.86-3.28,74.87-29.93,95.69-10.88,8.05,7.36,11.88,17.82,11.88,17.82,1.76,4.81,3.49,9.54,1.62,14.58Z"/>
    </clipPath>
  </defs>
  <path class="cls-8" d="m55.22,212c0-26.63,0-53.25,0-79.88,0-6.29,2.58-11.26,7.99-14.48,12-7.15,24.07-14.19,36.14-21.23,13.84-8.06,27.71-16.08,41.58-24.1,11.5-6.66,22.98-13.34,34.51-19.95,8.31-4.76,16.89-9.1,24.97-14.22,7.02-4.45,14.06-4.71,20.94-.99,11.8,6.38,23.26,13.39,34.88,20.12,10.31,5.97,20.64,11.91,30.96,17.87,13.87,8.02,27.73,16.06,41.6,24.09,9.6,5.56,19.05,11.43,28.86,16.6,8.04,4.23,11.1,11.17,11.14,19.35.2,51.55.18,103.11.03,154.66-.03,9.14-4.44,16.16-12.51,20.76-19.87,11.32-39.75,22.6-59.56,34.02-20.88,12.04-41.67,24.24-62.51,36.35-3.66,2.13-7.53,3.93-11.08,6.23-9.45,6.12-17.99,3.18-26.62-1.99-12.1-7.25-24.36-14.22-36.56-21.3-19.78-11.5-39.54-23.02-59.33-34.48-11.85-6.86-23.81-13.52-35.6-20.48-6.06-3.58-9.86-8.77-9.85-16.22.03-26.91.01-53.82.01-80.73Z"/>
  <path class="cls-1" d="m69.1,138.11c0-1.54-.32-3.11.32-4.61.39-3.72,4.03-4.1,6.27-5.44,13.64-8.13,27.55-15.81,41.3-23.75,15.66-9.03,31.23-18.21,46.87-27.27,13.39-7.76,27.27-14.78,40.08-23.4,8.42-5.67,14.02-1.41,20.47,2.37,11.7,6.85,23.39,13.73,35.12,20.54,13.97,8.11,27.96,16.18,41.96,24.24,12.11,6.97,24.23,13.91,36.35,20.87,4.98,2.86,10.01,5.62,14.91,8.6,1.48.9,3.16,1.96,3.27,4.09.59,1.21.33,2.51.33,3.77.01,50.82.01,101.64,0,152.46,0,1.26.25,2.55-.32,3.77-1.17,6.33-7.04,7.49-11.43,10.07-19.81,11.69-39.7,23.23-59.62,34.73-17.78,10.26-35.64,20.39-53.46,30.58-5.22,2.99-10.53,5.83-15.62,9.03-2.63,1.65-4.82,1.26-7.23-.14-18.25-10.56-36.53-21.07-54.78-31.65-18.95-10.99-37.86-22.06-56.82-33.05-7.69-4.46-15.44-8.83-23.21-13.16-2.39-1.33-4.31-2.93-5.11-5.64.59-1.65.29-3.37.29-5.05"/>
  <path class="cls-11" d="m87.96,145.98c0-1.67.83-3.23,2.26-4.09,14.09-8.49,28.18-16.98,42.27-25.46,19.24-11.58,38.47-23.18,57.72-34.74,6.1-3.66,12.34-7.1,18.36-10.9,2.67-1.69,4.75-1.75,7.58-.19,17.88,9.84,35.88,19.47,53.85,29.16,17.72,9.56,35.46,19.1,53.18,28.67,2.86,1.55,5.7,3.12,8.6,4.74,3.2,1.78,3.2,6.37.01,8.17-2.06,1.17-4.18,2.23-6.19,3.42-25.89,15.39-51.92,30.55-77.92,45.75-4.16,2.43-11.5,6.4-15.69,8.79-1.23.7-2.11,1.43-2.68,2.39-.87,1.47-.79,2.98-.78,3.45.22,6.83.15,137.69.16,137.83,0,0,0,0,0,0,0,0,0,0,0,0,0,0,0,0,0,0,.08,1.3.28,6.8-3.69,11.58-5.14,6.21-13.08,5.84-14.52,5.74-1.28-.09-4.15-.31-7.01-2-8.28-4.89-7.96-16.99-7.93-17.67-.03-54.86-.03-67.15-.03-67.15,0-16.64.01-39.43.06-66.82,0,0,0,0,0,0,.02-3.81-1.29-5.78-4.4-7.44-13.9-7.42-27.76-14.92-41.59-22.48-10.82-5.91-21.57-11.93-32.36-17.88-.34-.19-.75-.24-1.21-.38-.89,1.52-.44,3.08-.44,4.55-.03,45.19-.02,90.37-.03,135.56,0,5.73-.2,6-4.9,3.17-6.55-3.95-13.59-6.94-20.29-10.58-1.54-.84-2.43-2.49-2.41-4.24,0-.03,0-.06,0-.08-.02-46.95-.02-93.89,0-140.84,0,0,0-.02,0-.03Z"/>
  <path class="cls-1" d="m289.07,136.69c-3.26,3.39-7.58,4.77-11.35,6.92-20.67,11.83-41.5,23.37-62.23,35.09-3.02,1.71-5.47.73-8.11-.69-16.77-9.01-33.56-17.98-50.36-26.94-6.04-3.22-12.06-6.48-18.19-9.52-1.21-.6-1.84-1.5-2.98-2.34,11.25-6.57,22.22-13.01,33.22-19.39,13.38-7.76,26.82-15.4,40.14-23.24,1.93-1.14,3.38-1.38,5.35-.31,10.94,5.95,21.97,11.75,32.91,17.71,6.73,3.67,13.33,7.59,20.06,11.27,7.08,3.87,14.24,7.57,21.55,11.44Z"/>
  <g class="cls-10">
    <path class="cls-16" d="m343.24,205.19c-9.38-2.13-18.75-4.26-28.13-6.4,5.76-14.4,11.52-28.8,17.28-43.2h10.85v49.6Z"/>
  </g>
  <g class="cls-6">
    <path class="cls-18" d="m309.71,209.07c-20.46,12.42-31.25,18.97-31.25,18.97-.46.25-1.01.63-1.54,1.18-1.41,1.47-1.72,3.22-1.8,3.96h0s-.79,1.8-.73,10.22c0,0,.27,76.91.27,76.92.19-1.09-.16,2.27-.69,3.24-.79,1.44-2.04,2.22-2.83,2.65-.82.44-22.86,12.32-23.23,14.21-.01.07-.08.56-.43.75-.23.13-.51.08-.74,0,0,0-1.9-2.28-1.9-2.28,0,0-.05-9.53-.03-19.45.01-7.28.05-7.95.06-15.35,0-6.06-.02-10.43-.02-12.19h0s0-65.96.61-76.31c0-.05.11-1.9.11-1.9.12-.08.23-.15.35-.23l.44-.34c.21-.18.42-.35.64-.53.03-.02,1.5-.83,1.53-.85,0,0,.28-.15.28-.15,3.9-2.17,13.1-6.72,31.04-17.74h0c2.49-1.41,35.97-20.28,35.97-20.28h0s5.69-2.8,9.66-4.76c.04-.02.06-.03.06-.03,0,0,9.31-5.4,9.32-5.4,0,0,2.03.58,2.21,1.62.03.18,0,.33,0,.36.01,40.15.01,80.29,0,120.44,0,.54.04,1.09-.04,1.62-.07.52-.39.99-.82,1.3-6.6,4.83-13.56,9.05-20.85,12.73-1.4.71-3.05-.39-2.96-1.96.02-.38.06-1.39.06-1.39,0,.04-.01.07-.02.07-.2,0-.15-33.78-.08-85.77,0,0,.02.2,0,.2-.07,0-.04-3.06-1.32-3.64-.46-.21-.97-.05-1.32.1Z"/>
  </g>
  <g class="cls-3">
    <path class="cls-13" d="m309.68,209.11c-20.46,12.42-31.25,18.97-31.25,18.97-.46.25-1.01.63-1.54,1.18-1.41,1.47-1.72,3.22-1.8,3.96h0s-.79,1.8-.73,10.22c0,0,.27,76.91.27,76.92.19-1.09-.16,2.27-.69,3.24-.79,1.44-2.04,2.22-2.83,2.65-.82.44-22.86,12.32-23.23,14.21-.01.07-.08.56-.43.75-.23.13-.51.08-.74,0,0,0-1.9-2.28-1.9-2.28,0,0-.05-9.53-.03-19.45.01-7.28.05-7.95.06-15.35,0-6.06-.02-10.43-.02-12.19h0s0-65.96.61-76.31c0-.05.11-1.9.11-1.9.12-.08.23-.15.35-.23l.44-.34c.21-.18.42-.35.64-.53.03-.02,1.5-.83,1.53-.85,0,0,.28-.15.28-.15,3.9-2.17,13.1-6.72,31.04-17.74h0c2.49-1.41,35.97-20.28,35.97-20.28h0s5.69-2.8,9.66-4.76c.04-.02.06-.03.06-.03,0,0,9.31-5.4,9.32-5.4,0,0,2.03.58,2.21,1.62.03.18,0,.33,0,.36.01,40.15.01,80.29,0,120.44,0,.54.04,1.09-.04,1.62-.07.52-.39.99-.82,1.3-6.6,4.83-13.56,9.05-20.85,12.73-1.4.71-3.05-.39-2.96-1.96.02-.38.06-1.39.06-1.39,0,.04-.01.07-.02.07-.2,0-.15-33.78-.08-85.77,0,0,.02.2,0,.2-.07,0-.04-3.06-1.32-3.64-.46-.21-.97-.05-1.32.1Z"/>
  </g>
  <g class="cls-14">
    <path class="cls-2" d="m309.35,209.05c-24.8,12.42-37.88,18.97-37.88,18.97-.56.25-1.23.63-1.87,1.18-1.71,1.47-2.08,3.22-2.18,3.96h0s-.96,1.8-.89,10.22c0,0,.33,76.91.33,76.92.23-1.09-.2,2.27-.84,3.24-.69,1.04-1.82,1.85-3.43,2.65-9.36,4.64-18.57,9.49-28.05,14.43-1.66.86-3.83-.12-3.83-1.74,0-41.27,0-82.1-.01-122.92,0-1.44.11-2.55,2.03-3.42,13.52-6.15,26.97-12.41,40.41-18.69,20.96-9.78,41.87-19.63,62.87-29.35,1-.47,1.98-1.07,3.06-1.5,1.65-.65,3.52.48,3.43,1.99,0,.12-.01.24-.01.36.01,40.15.01,80.29,0,120.44,0,.54.04,1.09-.05,1.62-.09.52-.48.99-.99,1.3-8,4.83-16.44,9.05-25.28,12.73-1.7.71-3.7-.39-3.58-1.96.03-.38.08-1.39.08-1.39,0,.04-.01.07-.02.07-.24,0-.18-33.78-.1-85.77,0,0,.02.2,0,.2-.08,0-.05-3.06-1.61-3.64-.55-.21-1.18-.05-1.6.1Z"/>
  </g>
  <g class="cls-7">
    <path class="cls-15" d="m309.65,209.34c-20.46,12.42-31.25,18.97-31.25,18.97-.46.25-1.01.63-1.54,1.18-1.41,1.47-1.72,3.22-1.8,3.96h0s-.79,1.8-.73,10.22c0,0,.27,76.91.27,76.92.19-1.09-.16,2.27-.69,3.24-.57,1.04-1.5,1.85-2.83,2.65-7.72,4.64-15.31,9.49-23.14,14.43-1.37.86-3.16-.12-3.16-1.74,0-41.27,0-82.1,0-122.92,0-1.44.09-2.55,1.68-3.42,11.15-6.15,22.25-12.41,33.33-18.69,17.29-9.78,34.54-19.63,51.86-29.35.83-.47,1.64-1.07,2.52-1.5,1.36-.65,2.9.48,2.83,1.99,0,.12,0,.24,0,.36.01,40.15.01,80.29,0,120.44,0,.54.04,1.09-.04,1.62-.07.52-.39.99-.82,1.3-6.6,4.83-13.56,9.05-20.85,12.73-1.4.71-3.05-.39-2.96-1.96.02-.38.06-1.39.06-1.39,0,.04-.01.07-.02.07-.2,0-.15-33.78-.08-85.77,0,0,.02.2,0,.2-.07,0-.04-3.06-1.32-3.64-.46-.21-.97-.05-1.32.1Z"/>
  </g>
  <g class="cls-17">
    <path class="cls-5" d="m309.69,209.3c-20.46,12.42-31.25,18.97-31.25,18.97-.46.25-1.01.63-1.54,1.18-1.41,1.47-1.72,3.22-1.8,3.96h0s-.79,1.8-.73,10.22c0,0,.27,76.91.27,76.92.19-1.09-.16,2.27-.69,3.24-.57,1.04-1.5,1.85-2.83,2.65-7.72,4.64-15.31,9.49-23.14,14.43-1.37.86-3.16-.12-3.16-1.74,0-41.27,0-82.1,0-122.92,0-1.44.09-2.55,1.68-3.42,11.15-6.15,22.25-12.41,33.33-18.69,17.29-9.78,34.54-19.63,51.86-29.35.83-.47,1.64-1.07,2.52-1.5,1.36-.65,2.9.48,2.83,1.99,0,.12,0,.24,0,.36.01,40.15.01,80.29,0,120.44,0,.54.04,1.09-.04,1.62-.07.52-.39.99-.82,1.3-6.6,4.83-13.56,9.05-20.85,12.73-1.4.71-3.05-.39-2.96-1.96.02-.38.06-1.39.06-1.39,0,.04-.01.07-.02.07-.2,0-.15-33.78-.08-85.77,0,0,.02.2,0,.2-.07,0-.04-3.06-1.32-3.64-.46-.21-.97-.05-1.32.1Z"/>
  </g>
  <g class="cls-4">
    <path class="cls-9" d="m309.86,209.21c-20.46,12.42-31.25,18.97-31.25,18.97-.46.25-1.01.63-1.54,1.18-1.41,1.47-1.72,3.22-1.8,3.96h0s-.79,1.8-.73,10.22c0,0,.27,76.91.27,76.92.19-1.09-.16,2.27-.69,3.24-.57,1.04-1.5,1.85-2.83,2.65-7.72,4.64-15.31,9.49-23.14,14.43-1.37.86-3.16-.12-3.16-1.74,0-41.27,0-82.1,0-122.92,0-1.44.09-2.55,1.68-3.42,11.15-6.15,22.25-12.41,33.33-18.69,17.29-9.78,34.54-19.63,51.86-29.35.83-.47,1.64-1.07,2.52-1.5,1.36-.65,2.9.48,2.83,1.99,0,.12,0,.24,0,.36.01,40.15.01,80.29,0,120.44,0,.54.04,1.09-.04,1.62-.07.52-.39.99-.82,1.3-6.6,4.83-13.56,9.05-20.85,12.73-1.4.71-3.05-.39-2.96-1.96.02-.38.06-1.39.06-1.39,0,.04-.01.07-.02.07-.2,0-.15-33.78-.08-85.77,0,0,.02.2,0,.2-.07,0-.04-3.06-1.32-3.64-.46-.21-.97-.05-1.32.1Z"/>
  </g>
</svg>